<?xml version="1.0" encoding="UTF-8"?>
<svg width="90px" height="30px" viewBox="0 0 90 30" version="1.1" xmlns="http://www.w3.org/2000/svg" xmlns:xlink="http://www.w3.org/1999/xlink">
    <title>直播中</title>
    <g id="首页" stroke="none" stroke-width="1" fill="none" fill-rule="evenodd">
        <g id="展会首页" transform="translate(-496.000000, -1504.000000)">
            <g id="直播" transform="translate(260.000000, 1350.000000)">
                <g id="编组-12" transform="translate(0.000000, 111.000000)">
                    <g id="直播中" transform="translate(236.000000, 43.000000)">
                        <rect id="矩形" fill="#FF762D" x="0" y="0" width="90" height="30" rx="15"></rect>
                        <text font-family="MicrosoftYaHei, Microsoft YaHei" font-size="16" font-weight="normal" fill="#FFFFFF">
                            <tspan x="29" y="20">直播中</tspan>
                        </text>
                        <g id="编组" transform="translate(9.000000, 9.000000)" fill="#FFFFFF" fill-rule="nonzero">
                            <path d="M1.36363201,0 C1.72529247,0 2.07214003,0.136965502 2.32787109,0.380765232 C2.58360216,0.624564962 2.72726401,0.9552278 2.72726401,1.30001066 L2.72726401,11.7000046 C2.72726401,12.4179722 2.11674517,13 1.36363201,13 C0.610518844,13 0,12.4179722 0,11.7000046 L0,1.30001066 C0,0.9552278 0.14366185,0.624564962 0.399392917,0.380765232 C0.655123985,0.136965502 1.00197154,0 1.36363201,0 Z M7.5,3.25001143 C8.25311316,3.25001143 8.86363201,3.8320392 8.86363201,4.55000686 L8.86363201,8.45000838 C8.86363201,9.16797603 8.25311316,9.75001143 7.5,9.75001143 C6.74688684,9.75001143 6.13636799,9.16797603 6.13636799,8.45000838 L6.13636799,4.55000686 C6.13636799,3.8320392 6.74688684,3.25001143 7.5,3.25001143 Z M13.636368,1.62500571 C14.545456,1.62500571 15,2.05833752 15,2.92500114 L15,10.0750141 C15,10.9416777 14.545456,11.3750095 13.636368,11.3750095 C12.72728,11.3750095 12.272736,10.9416777 12.272736,10.0750141 L12.272736,2.92500114 C12.272736,2.05833752 12.72728,1.62500571 13.636368,1.62500571 Z" id="形状"></path>
                        </g>
                    </g>
                </g>
            </g>
        </g>
    </g>
</svg>